<svg width="940" height="1924" viewBox="0 0 940 1924" fill="none" xmlns="http://www.w3.org/2000/svg">
<g clip-path="url(#clip0_2903_1370)">
<g filter="url(#filter0_f_2903_1370)">
<rect width="7" height="225.554" rx="0.723076" transform="matrix(-1 0 0 1 939.276 578.278)" fill="#DEDEDE"/>
<rect x="0.361538" y="-0.361538" width="7.72308" height="226.277" rx="1.08461" transform="matrix(-1 0 0 1 939.999 578.278)" stroke="black" stroke-width="0.723076"/>
</g>
<g filter="url(#filter1_f_2903_1370)">
<rect x="0.361538" y="-0.361538" width="6.27692" height="224.831" rx="0.506153" transform="matrix(-1 0 0 1 939.276 579.001)" stroke="#FAFAF8" stroke-width="0.723076"/>
</g>
<g filter="url(#filter2_f_2903_1370)">
<rect width="6.50768" height="15.9077" rx="0.361538" transform="matrix(-1 0 0 1 938.553 579.001)" fill="url(#paint0_linear_2903_1370)"/>
</g>
<g filter="url(#filter3_f_2903_1370)">
<rect x="938.553" y="803.109" width="6.50768" height="15.9077" rx="0.361538" transform="rotate(180 938.553 803.109)" fill="url(#paint1_linear_2903_1370)"/>
</g>
</g>
<g clip-path="url(#clip1_2903_1370)">
<g filter="url(#filter4_f_2903_1370)">
<rect x="0.724121" y="390.278" width="7" height="68.5538" rx="0.723076" fill="#DEDEDE"/>
<rect x="0.362583" y="389.916" width="7.72308" height="69.2769" rx="1.08461" stroke="black" stroke-width="0.723076"/>
</g>
<g filter="url(#filter5_f_2903_1370)">
<rect x="1.08548" y="390.639" width="6.27692" height="67.8308" rx="0.506153" stroke="#FAFAF8" stroke-width="0.723076"/>
</g>
<g filter="url(#filter6_f_2903_1370)">
<rect x="1.44702" y="391.001" width="6.50768" height="7.95383" rx="0.361538" fill="url(#paint2_linear_2903_1370)"/>
</g>
<g filter="url(#filter7_f_2903_1370)">
<rect width="6.50768" height="7.95383" rx="0.361538" transform="matrix(1 0 0 -1 1.44702 458.108)" fill="url(#paint3_linear_2903_1370)"/>
</g>
</g>
<g clip-path="url(#clip2_2903_1370)">
<g filter="url(#filter8_f_2903_1370)">
<rect x="0.724121" y="526.939" width="7" height="144.554" rx="0.723076" fill="#DEDEDE"/>
<rect x="0.362583" y="526.578" width="7.72308" height="145.277" rx="1.08461" stroke="black" stroke-width="0.723076"/>
</g>
<g filter="url(#filter9_f_2903_1370)">
<rect x="1.08548" y="527.301" width="6.27692" height="143.831" rx="0.506153" stroke="#FAFAF8" stroke-width="0.723076"/>
</g>
<g filter="url(#filter10_f_2903_1370)">
<rect x="1.44702" y="527.662" width="6.50768" height="15.9077" rx="0.361538" fill="url(#paint4_linear_2903_1370)"/>
</g>
<g filter="url(#filter11_f_2903_1370)">
<rect width="6.50768" height="15.9077" rx="0.361538" transform="matrix(1 0 0 -1 1.44702 670.77)" fill="url(#paint5_linear_2903_1370)"/>
</g>
</g>
<g clip-path="url(#clip3_2903_1370)">
<g filter="url(#filter12_f_2903_1370)">
<rect x="0.724121" y="710.6" width="7" height="144.554" rx="0.723076" fill="#DEDEDE"/>
<rect x="0.362583" y="710.239" width="7.72308" height="145.277" rx="1.08461" stroke="black" stroke-width="0.723076"/>
</g>
<g filter="url(#filter13_f_2903_1370)">
<rect x="1.08548" y="710.961" width="6.27692" height="143.831" rx="0.506153" stroke="#FAFAF8" stroke-width="0.723076"/>
</g>
<g filter="url(#filter14_f_2903_1370)">
<rect x="1.44702" y="711.323" width="6.50768" height="15.9077" rx="0.361538" fill="url(#paint6_linear_2903_1370)"/>
</g>
<g filter="url(#filter15_f_2903_1370)">
<rect width="6.50768" height="15.9077" rx="0.361538" transform="matrix(1 0 0 -1 1.44702 854.431)" fill="url(#paint7_linear_2903_1370)"/>
</g>
</g>
<g clip-path="url(#clip4_2903_1370)">
<rect x="6" y="13" width="925.537" height="1910.37" rx="151.846" fill="black"/>
<rect x="14.3155" y="21.3155" width="908.906" height="1893.74" rx="143.531" stroke="#E493C8" stroke-width="9.39998"/>
<rect x="7.80769" y="14.8077" width="921.922" height="1906.75" rx="150.038" stroke="#A8559B" stroke-width="3.61538"/>
<g opacity="0.9" filter="url(#filter16_f_2903_1370)">
<rect x="9.61548" y="17.3384" width="918.306" height="1902.41" rx="148.954" stroke="#DA70E4" stroke-width="3.61538"/>
</g>
<g opacity="0.8" filter="url(#filter17_f_2903_1370)">
<rect x="21.9078" y="28.9078" width="893.722" height="1878.55" rx="135.938" stroke="#BD659E" stroke-width="1.44615"/>
</g>
<rect width="845.999" height="1830.83" rx="119.307" transform="matrix(-1 0 0 1 891.768 52.769)" fill="white"/>
<g opacity="0.4">
<g style="mix-blend-mode:screen" opacity="0.75">
<rect x="6" y="1718.01" width="13.0154" height="11.5692" fill="#7C7C7C"/>
</g>
<g style="mix-blend-mode:screen" opacity="0.75">
<rect x="196.169" y="1908.9" width="11.5692" height="13.0154" fill="#7C7C7C"/>
</g>
<g style="mix-blend-mode:screen" opacity="0.75">
<rect x="918.521" y="206.061" width="13.0154" height="11.5692" fill="#7C7C7C"/>
</g>
<g style="mix-blend-mode:screen" opacity="0.75">
<rect x="6" y="206.061" width="13.0154" height="11.5692" fill="#7C7C7C"/>
</g>
<g style="mix-blend-mode:screen" opacity="0.75">
<rect x="742.814" y="13" width="11.5692" height="13.0154" fill="#7C7C7C"/>
</g>
<g style="mix-blend-mode:screen" opacity="0.75">
<rect x="918.521" y="1717.29" width="13.0154" height="11.5692" fill="#7C7C7C"/>
</g>
</g>
</g>
<defs>
<filter id="filter0_f_2903_1370" x="930.83" y="576.832" width="9.89244" height="228.446" filterUnits="userSpaceOnUse" color-interpolation-filters="sRGB">
<feFlood flood-opacity="0" result="BackgroundImageFix"/>
<feBlend mode="normal" in="SourceGraphic" in2="BackgroundImageFix" result="shape"/>
<feGaussianBlur stdDeviation="0.361538" result="effect1_foregroundBlur_2903_1370"/>
</filter>
<filter id="filter1_f_2903_1370" x="931.553" y="577.555" width="8.44615" height="227" filterUnits="userSpaceOnUse" color-interpolation-filters="sRGB">
<feFlood flood-opacity="0" result="BackgroundImageFix"/>
<feBlend mode="normal" in="SourceGraphic" in2="BackgroundImageFix" result="shape"/>
<feGaussianBlur stdDeviation="0.361538" result="effect1_foregroundBlur_2903_1370"/>
</filter>
<filter id="filter2_f_2903_1370" x="931.322" y="578.278" width="7.95372" height="17.3539" filterUnits="userSpaceOnUse" color-interpolation-filters="sRGB">
<feFlood flood-opacity="0" result="BackgroundImageFix"/>
<feBlend mode="normal" in="SourceGraphic" in2="BackgroundImageFix" result="shape"/>
<feGaussianBlur stdDeviation="0.361538" result="effect1_foregroundBlur_2903_1370"/>
</filter>
<filter id="filter3_f_2903_1370" x="931.322" y="786.478" width="7.95372" height="17.3539" filterUnits="userSpaceOnUse" color-interpolation-filters="sRGB">
<feFlood flood-opacity="0" result="BackgroundImageFix"/>
<feBlend mode="normal" in="SourceGraphic" in2="BackgroundImageFix" result="shape"/>
<feGaussianBlur stdDeviation="0.361538" result="effect1_foregroundBlur_2903_1370"/>
</filter>
<filter id="filter4_f_2903_1370" x="-0.722099" y="388.832" width="9.89244" height="71.4462" filterUnits="userSpaceOnUse" color-interpolation-filters="sRGB">
<feFlood flood-opacity="0" result="BackgroundImageFix"/>
<feBlend mode="normal" in="SourceGraphic" in2="BackgroundImageFix" result="shape"/>
<feGaussianBlur stdDeviation="0.361538" result="effect1_foregroundBlur_2903_1370"/>
</filter>
<filter id="filter5_f_2903_1370" x="0.000801206" y="389.555" width="8.44615" height="70.0001" filterUnits="userSpaceOnUse" color-interpolation-filters="sRGB">
<feFlood flood-opacity="0" result="BackgroundImageFix"/>
<feBlend mode="normal" in="SourceGraphic" in2="BackgroundImageFix" result="shape"/>
<feGaussianBlur stdDeviation="0.361538" result="effect1_foregroundBlur_2903_1370"/>
</filter>
<filter id="filter6_f_2903_1370" x="0.723946" y="390.278" width="7.95372" height="9.40001" filterUnits="userSpaceOnUse" color-interpolation-filters="sRGB">
<feFlood flood-opacity="0" result="BackgroundImageFix"/>
<feBlend mode="normal" in="SourceGraphic" in2="BackgroundImageFix" result="shape"/>
<feGaussianBlur stdDeviation="0.361538" result="effect1_foregroundBlur_2903_1370"/>
</filter>
<filter id="filter7_f_2903_1370" x="0.723946" y="449.431" width="7.95372" height="9.40001" filterUnits="userSpaceOnUse" color-interpolation-filters="sRGB">
<feFlood flood-opacity="0" result="BackgroundImageFix"/>
<feBlend mode="normal" in="SourceGraphic" in2="BackgroundImageFix" result="shape"/>
<feGaussianBlur stdDeviation="0.361538" result="effect1_foregroundBlur_2903_1370"/>
</filter>
<filter id="filter8_f_2903_1370" x="-0.722099" y="525.493" width="9.89244" height="147.446" filterUnits="userSpaceOnUse" color-interpolation-filters="sRGB">
<feFlood flood-opacity="0" result="BackgroundImageFix"/>
<feBlend mode="normal" in="SourceGraphic" in2="BackgroundImageFix" result="shape"/>
<feGaussianBlur stdDeviation="0.361538" result="effect1_foregroundBlur_2903_1370"/>
</filter>
<filter id="filter9_f_2903_1370" x="0.000801206" y="526.216" width="8.44615" height="146" filterUnits="userSpaceOnUse" color-interpolation-filters="sRGB">
<feFlood flood-opacity="0" result="BackgroundImageFix"/>
<feBlend mode="normal" in="SourceGraphic" in2="BackgroundImageFix" result="shape"/>
<feGaussianBlur stdDeviation="0.361538" result="effect1_foregroundBlur_2903_1370"/>
</filter>
<filter id="filter10_f_2903_1370" x="0.723946" y="526.939" width="7.95372" height="17.3539" filterUnits="userSpaceOnUse" color-interpolation-filters="sRGB">
<feFlood flood-opacity="0" result="BackgroundImageFix"/>
<feBlend mode="normal" in="SourceGraphic" in2="BackgroundImageFix" result="shape"/>
<feGaussianBlur stdDeviation="0.361538" result="effect1_foregroundBlur_2903_1370"/>
</filter>
<filter id="filter11_f_2903_1370" x="0.723946" y="654.139" width="7.95372" height="17.3539" filterUnits="userSpaceOnUse" color-interpolation-filters="sRGB">
<feFlood flood-opacity="0" result="BackgroundImageFix"/>
<feBlend mode="normal" in="SourceGraphic" in2="BackgroundImageFix" result="shape"/>
<feGaussianBlur stdDeviation="0.361538" result="effect1_foregroundBlur_2903_1370"/>
</filter>
<filter id="filter12_f_2903_1370" x="-0.722099" y="709.154" width="9.89244" height="147.446" filterUnits="userSpaceOnUse" color-interpolation-filters="sRGB">
<feFlood flood-opacity="0" result="BackgroundImageFix"/>
<feBlend mode="normal" in="SourceGraphic" in2="BackgroundImageFix" result="shape"/>
<feGaussianBlur stdDeviation="0.361538" result="effect1_foregroundBlur_2903_1370"/>
</filter>
<filter id="filter13_f_2903_1370" x="0.000801206" y="709.877" width="8.44615" height="146" filterUnits="userSpaceOnUse" color-interpolation-filters="sRGB">
<feFlood flood-opacity="0" result="BackgroundImageFix"/>
<feBlend mode="normal" in="SourceGraphic" in2="BackgroundImageFix" result="shape"/>
<feGaussianBlur stdDeviation="0.361538" result="effect1_foregroundBlur_2903_1370"/>
</filter>
<filter id="filter14_f_2903_1370" x="0.723946" y="710.6" width="7.95372" height="17.3539" filterUnits="userSpaceOnUse" color-interpolation-filters="sRGB">
<feFlood flood-opacity="0" result="BackgroundImageFix"/>
<feBlend mode="normal" in="SourceGraphic" in2="BackgroundImageFix" result="shape"/>
<feGaussianBlur stdDeviation="0.361538" result="effect1_foregroundBlur_2903_1370"/>
</filter>
<filter id="filter15_f_2903_1370" x="0.723946" y="837.8" width="7.95372" height="17.3539" filterUnits="userSpaceOnUse" color-interpolation-filters="sRGB">
<feFlood flood-opacity="0" result="BackgroundImageFix"/>
<feBlend mode="normal" in="SourceGraphic" in2="BackgroundImageFix" result="shape"/>
<feGaussianBlur stdDeviation="0.361538" result="effect1_foregroundBlur_2903_1370"/>
</filter>
<filter id="filter16_f_2903_1370" x="5.63863" y="13.3615" width="926.26" height="1910.37" filterUnits="userSpaceOnUse" color-interpolation-filters="sRGB">
<feFlood flood-opacity="0" result="BackgroundImageFix"/>
<feBlend mode="normal" in="SourceGraphic" in2="BackgroundImageFix" result="shape"/>
<feGaussianBlur stdDeviation="1.08461" result="effect1_foregroundBlur_2903_1370"/>
</filter>
<filter id="filter17_f_2903_1370" x="19.7387" y="26.7387" width="898.06" height="1882.89" filterUnits="userSpaceOnUse" color-interpolation-filters="sRGB">
<feFlood flood-opacity="0" result="BackgroundImageFix"/>
<feBlend mode="normal" in="SourceGraphic" in2="BackgroundImageFix" result="shape"/>
<feGaussianBlur stdDeviation="0.723076" result="effect1_foregroundBlur_2903_1370"/>
</filter>
<linearGradient id="paint0_linear_2903_1370" x1="3.25384" y1="0" x2="3.25384" y2="15.9077" gradientUnits="userSpaceOnUse">
<stop stop-color="#2D2E2A"/>
<stop offset="0.760033" stop-color="#DEDEDE"/>
</linearGradient>
<linearGradient id="paint1_linear_2903_1370" x1="941.807" y1="803.109" x2="941.807" y2="819.016" gradientUnits="userSpaceOnUse">
<stop stop-color="#2D2E2A"/>
<stop offset="0.760033" stop-color="#DEDEDE"/>
</linearGradient>
<linearGradient id="paint2_linear_2903_1370" x1="4.70086" y1="391.001" x2="4.70086" y2="398.955" gradientUnits="userSpaceOnUse">
<stop stop-color="#2D2E2A"/>
<stop offset="0.760033" stop-color="#DEDEDE"/>
</linearGradient>
<linearGradient id="paint3_linear_2903_1370" x1="3.25384" y1="0" x2="3.25384" y2="7.95383" gradientUnits="userSpaceOnUse">
<stop stop-color="#2D2E2A"/>
<stop offset="0.760033" stop-color="#DEDEDE"/>
</linearGradient>
<linearGradient id="paint4_linear_2903_1370" x1="4.70086" y1="527.662" x2="4.70086" y2="543.57" gradientUnits="userSpaceOnUse">
<stop stop-color="#2D2E2A"/>
<stop offset="0.760033" stop-color="#DEDEDE"/>
</linearGradient>
<linearGradient id="paint5_linear_2903_1370" x1="3.25384" y1="0" x2="3.25384" y2="15.9077" gradientUnits="userSpaceOnUse">
<stop stop-color="#2D2E2A"/>
<stop offset="0.760033" stop-color="#DEDEDE"/>
</linearGradient>
<linearGradient id="paint6_linear_2903_1370" x1="4.70086" y1="711.323" x2="4.70086" y2="727.231" gradientUnits="userSpaceOnUse">
<stop stop-color="#2D2E2A"/>
<stop offset="0.760033" stop-color="#DEDEDE"/>
</linearGradient>
<linearGradient id="paint7_linear_2903_1370" x1="3.25384" y1="0" x2="3.25384" y2="15.9077" gradientUnits="userSpaceOnUse">
<stop stop-color="#2D2E2A"/>
<stop offset="0.760033" stop-color="#DEDEDE"/>
</linearGradient>
<clipPath id="clip0_2903_1370">
<path d="M939.999 579.001C939.999 578.202 939.352 577.555 938.553 577.555H932.768V804.6H938.553C939.352 804.6 939.999 803.953 939.999 803.154V579.001Z" fill="white"/>
</clipPath>
<clipPath id="clip1_2903_1370">
<path d="M0.000976562 391.001C0.000976562 390.202 0.648441 389.555 1.44713 389.555H7.23173V459.693H1.44713C0.64844 459.693 0.000976562 459.046 0.000976562 458.247V391.001Z" fill="white"/>
</clipPath>
<clipPath id="clip2_2903_1370">
<path d="M0.000976562 527.662C0.000976562 526.864 0.648441 526.216 1.44713 526.216H7.23173V672.277H1.44713C0.64844 672.277 0.000976562 671.63 0.000976562 670.831V527.662Z" fill="white"/>
</clipPath>
<clipPath id="clip3_2903_1370">
<path d="M0.000976562 711.323C0.000976562 710.524 0.648441 709.877 1.44713 709.877H7.23173V855.938H1.44713C0.64844 855.938 0.000976562 855.291 0.000976562 854.492V711.323Z" fill="white"/>
</clipPath>
<clipPath id="clip4_2903_1370">
<rect x="6" y="13" width="925.537" height="1910.37" rx="151.846" fill="white"/>
</clipPath>
</defs>
</svg>
